PathFileType	4	(X/Y/Z)	H:\MAC\Pilotos\MDrajagopal3\Trimmed_runO3.trc
DataRate	CameraRate	NumFrames	NumMarkers	Units	OrigDataRate	OrigDataStartFrame	OrigNumFrames
150.00	150.00	       6	78	mm	150.00	108	       123
Frame#	Time	RACR			LACR			C7			CLAV			RASH			RPSH			LASH			LPSH			RUA1			RUA2			RUA3			RLEL			RMEL			RFAsuperior			RFAradius			RFAulna			LUA1			LUA2			LUA3			LLEL			LMEL			LFAsuperior			LFAradius			LFAulna			RASI			LASI			RPSI			LPSI			RTH1			RTH2			RTH3			RLFC			RMFC			RTB1			RTB2			RTB3			RLMAL			RMMAL			RCAL			RTOE			RMT5			LTH1			LTH2			LTH3			LLFC			LMFC			LTB1			LTB2			LTB3			LLMAL			LMMAL			LCAL			LTOE			LMT5			RSJC			LSJC			RHJC			LHJC			RKJC			LKJC			RAJC			LAJC			REJC			LEJC			Mid_ASIS			Mid_PSIS			RASHv			RPSHv			LPSHv			RLFCv			RMFCv			RLMALv			RMMALv			LLFCv			LMFCv			LLMALv			LMMALv			LASHv			
		X1	Y1	Z1	X2	Y2	Z2	X3	Y3	Z3	X4	Y4	Z4	X5	Y5	Z5	X6	Y6	Z6	X7	Y7	Z7	X8	Y8	Z8	X9	Y9	Z9	X10	Y10	Z10	X11	Y11	Z11	X12	Y12	Z12	X13	Y13	Z13	X14	Y14	Z14	X15	Y15	Z15	X16	Y16	Z16	X17	Y17	Z17	X18	Y18	Z18	X19	Y19	Z19	X20	Y20	Z20	X21	Y21	Z21	X22	Y22	Z22	X23	Y23	Z23	X24	Y24	Z24	X25	Y25	Z25	X26	Y26	Z26	X27	Y27	Z27	X28	Y28	Z28	X29	Y29	Z29	X30	Y30	Z30	X31	Y31	Z31	X32	Y32	Z32	X33	Y33	Z33	X34	Y34	Z34	X35	Y35	Z35	X36	Y36	Z36	X37	Y37	Z37	X38	Y38	Z38	X39	Y39	Z39	X40	Y40	Z40	X41	Y41	Z41	X42	Y42	Z42	X43	Y43	Z43	X44	Y44	Z44	X45	Y45	Z45	X46	Y46	Z46	X47	Y47	Z47	X48	Y48	Z48	X49	Y49	Z49	X50	Y50	Z50	X51	Y51	Z51	X52	Y52	Z52	X53	Y53	Z53	X54	Y54	Z54	X55	Y55	Z55	X56	Y56	Z56	X57	Y57	Z57	X58	Y58	Z58	X59	Y59	Z59	X60	Y60	Z60	X61	Y61	Z61	X62	Y62	Z62	X63	Y63	Z63	X64	Y64	Z64	X65	Y65	Z65	X66	Y66	Z66	X67	Y67	Z67	X68	Y68	Z68	X69	Y69	Z69	X70	Y70	Z70	X71	Y71	Z71	X72	Y72	Z72	X73	Y73	Z73	X74	Y74	Z74	X75	Y75	Z75	X76	Y76	Z76	X77	Y77	Z77	X78	Y78	Z78	

108	0.713	1845.28601	1423.30798	-9.91507	1974.14160	1443.06409	-303.83231	1858.09814	1448.10608	-178.29272	1971.75208	1378.63879	-85.09758													1761.13208	1349.57825	42.41571	1743.67969	1270.17834	47.93648	1671.35583	1301.18945	-7.45267	1645.16406	1249.70215	33.69440	1674.64319	1211.76025	-36.08730	1736.50781	1162.04651	66.39042	1789.26611	1084.92407	78.40603	1736.37061	1042.77869	108.49133	2001.69580	1357.57349	-382.06900	2029.39563	1268.56628	-396.81061	1940.81042	1262.12085	-429.52161	2003.32483	1198.88989	-443.76144	1916.63586	1164.52698	-406.85504	2065.15039	1185.92175	-324.69470	2063.77441	1185.44836	-243.78465	2106.05737	1129.15784	-260.81601	1976.90735	925.65631	-71.18109	1958.02136	916.62018	-297.04984	1801.17529	961.39178	-122.21131	1795.33643	967.25793	-203.66882	1906.72986	818.32703	-3.55029	1907.40955	650.41003	-40.03918	1981.02832	635.62512	-17.08468							2087.83984	399.47876	-89.92984	2015.94983	349.24426	-22.61388	2091.78052	244.93185	-55.40860							2050.39966	61.45300	-111.17749	2250.41553	111.39346	-99.86456	2217.76611	90.66653	-64.40823	1836.76648	841.69690	-335.04639	1756.05933	717.48407	-292.29565	1775.63977	627.38428	-320.23132							1718.43555	393.36902	-268.38751	1595.43359	423.92731	-296.42401	1575.50073	282.27051	-271.05551							1437.19409	252.38026	-199.52008	1508.51611	77.44508	-251.78661	1476.88806	98.58177	-280.44263																									1659.90356	1230.73120	-1.19645	1959.98035	1181.70850	-425.30826	1967.46436	921.13824	-184.11546	1798.25586	964.32489	-162.94006	1860.54321	1299.65881	58.58071	1799.80371	1388.78210	15.62332	2029.71252	1437.07202	-314.80185	1980.41003	529.26013	-12.62016	2041.62231	518.67822	-134.25867	2103.94580	103.96999	-28.86150	2129.19946	117.26563	-115.97118	1756.07080	559.39465	-347.96326	1804.79480	524.67468	-229.06419	1474.74512	204.12787	-267.69357	1541.43640	181.00243	-208.72064	2115.34253	1386.12891	-294.75943	
109	0.720	1862.40759	1422.28052	-8.20461	1989.89026	1442.17615	-302.92783	1875.19263	1447.08289	-176.27788	1988.94812	1378.22241	-83.35372													1778.40857	1347.53357	42.87389	1761.74744	1267.80933	48.43207	1690.14685	1297.80481	-8.90689	1663.99146	1246.07129	32.74619	1694.98730	1208.32178	-36.15781	1755.84180	1159.77087	67.63113	1809.90405	1083.68408	81.70969	1756.83179	1040.14465	109.50048	2016.11707	1356.49707	-382.02493	2043.90491	1267.76660	-398.53015	1953.84570	1261.82764	-428.33344	2016.01917	1198.39148	-443.89175	1930.38342	1164.73499	-405.97012	2079.61646	1184.08533	-326.02869	2078.87061	1183.01135	-244.71507	2120.46143	1126.51563	-262.44464	1993.96289	923.83014	-68.50739	1977.11816	916.14648	-294.80997	1819.01147	959.99030	-120.88740	1813.66492	965.98804	-202.62799	1923.76318	816.29669	-1.89686	1924.72998	648.79126	-39.27392	1997.04639	633.05316	-14.50714							2103.39673	397.28284	-88.34517	2029.00183	347.03653	-23.68699	2103.88159	241.99232	-55.96076							2060.88550	59.97827	-114.70174	2261.52441	106.02576	-99.82086	2227.99487	85.34743	-65.21152	1857.29004	839.46484	-334.44818	1777.45410	712.80768	-292.10281	1799.59814	623.40363	-319.92004							1738.33777	390.92413	-267.18143	1616.68860	425.69797	-295.74039	1590.25305	285.74728	-268.54282							1452.66113	262.99173	-193.70917	1513.36292	86.96191	-254.49142	1482.07776	110.47638	-281.17523																									1679.48938	1227.19653	-1.70581	1973.20129	1181.56323	-424.93094	1985.54053	919.98828	-181.65869	1816.33813	962.98920	-161.75769	1877.97363	1298.80798	61.54012	1817.21008	1387.06189	16.75460	2045.80493	1435.54126	-314.93948	1996.29102	526.92194	-10.42242	2061.07935	516.72101	-130.22749	2113.62451	100.64305	-31.64937	2141.33521	114.92998	-117.85036	1781.72729	555.76251	-347.73184	1829.39722	522.18719	-228.07919	1487.60596	211.14684	-263.80737	1553.35876	186.38722	-204.44536	2132.36572	1384.98425	-298.18777	
110	0.727	1879.82446	1420.74231	-6.40105	2005.78979	1440.75586	-302.04382	1892.26672	1445.66968	-174.26239	2006.22168	1377.42578	-81.94461													1795.68152	1344.68420	43.97785	1780.77893	1264.55591	49.28548	1709.30457	1293.29639	-9.13790	1683.40430	1241.24878	32.76084	1715.83606	1203.76953	-35.67947	1776.04626	1156.16016	69.60442	1831.31433	1081.49707	85.01582	1778.27441	1036.52393	110.83385	2030.40417	1354.96948	-381.94626	2057.36377	1266.25781	-400.32556	1966.38159	1261.05457	-426.94620	2028.27795	1197.20129	-444.23300	1943.48242	1164.51794	-404.74802	2094.02271	1181.45227	-327.47989	2093.69287	1179.70789	-245.86687	2134.61304	1122.96545	-264.33914	2010.95215	922.48199	-65.91005	1996.23547	915.15662	-292.36246	1836.56543	957.94867	-119.87164	1831.92688	964.12476	-201.83263	1940.46338	813.97498	-0.40977	1942.20874	647.16107	-38.68316	2013.78210	631.06689	-12.46720							2117.87500	394.50867	-86.62276	2041.36865	344.61877	-24.78666	2114.55298	238.30420	-56.87199							2068.40527	58.15972	-118.32364	2235.36914	78.43000	-65.82438	2269.74536	98.74413	-99.83651	1878.23523	836.57977	-333.99710	1799.69128	707.45105	-292.09784	1824.31531	618.71979	-319.60648							1759.10474	388.20792	-265.88248	1638.94360	427.32593	-295.24335	1605.85974	289.69312	-266.02112							1469.26465	273.63266	-188.59456	1520.58630	97.02007	-255.92546	1489.82654	122.61649	-281.33044																									1699.62024	1222.50916	-1.45931	1985.88013	1180.85962	-424.49051	2003.59375	918.81927	-179.13626	1834.24609	961.03674	-160.85214	1895.95300	1297.98901	64.00273	1833.92566	1385.11060	18.41689	2062.64600	1433.24731	-315.14160	2013.04358	524.61707	-9.06021	2080.55176	515.11774	-127.41240	2121.48511	96.74791	-35.24493	2151.40552	112.09116	-120.52076	1808.42456	551.42261	-347.60071	1855.09155	519.05676	-227.22154	1501.38208	218.67880	-259.82965	1566.03516	192.33977	-199.94171	2149.58960	1382.29834	-301.93402	
111	0.733	1897.27441	1418.66492	-4.59695	2021.68127	1438.82544	-301.21960	1909.29675	1444.00244	-172.24445	2023.54309	1376.18604	-80.65099													1813.67944	1340.84875	45.28453	1800.51453	1260.36108	50.44371	1728.64282	1287.70618	-8.35423	1703.31592	1235.39136	33.59823	1737.26306	1198.04346	-34.44288	1796.74475	1151.39795	72.19817	1853.29041	1078.54138	88.42393	1800.57458	1032.08484	112.48254	2044.50574	1353.11072	-381.76190	2069.96631	1264.25269	-402.07675	1978.40747	1259.93457	-425.41864	2039.94275	1195.46143	-444.36890	1956.73608	1163.72595	-403.19827	2107.61621	1178.02368	-328.91711	2108.44873	1175.50574	-246.82907	2148.33276	1118.27490	-266.45331	2027.73376	920.87891	-62.85935	2015.51648	913.71179	-289.82101	1853.99377	955.32617	-119.10880	1849.94116	961.49103	-201.05008	1956.91748	811.71216	1.20591	1959.57971	645.30316	-38.18822	2030.72522	629.37164	-11.19076							2131.89233	390.97043	-85.68640	2053.24707	341.95416	-25.90893	2123.96143	233.92801	-58.06005							2073.45776	55.90370	-121.83326	2275.45337	90.13069	-99.96073	2240.25537	70.42451	-66.86968	1899.44385	833.51184	-334.11227	1822.53076	701.70245	-292.40912	1849.54736	613.61243	-319.50439							1780.98352	385.33615	-264.54681	1662.55505	429.04132	-294.89832	1623.53687	293.35571	-263.52292							1486.85388	284.18481	-184.78780	1530.36816	106.92435	-255.76982	1500.56702	134.44516	-280.61816																									1720.28955	1216.71741	-0.42233	1998.33948	1179.59375	-423.78360	2021.62512	917.29535	-176.34018	1851.96753	958.40857	-160.07944	1914.82300	1296.26233	65.72601	1851.14319	1382.13647	19.94573	2079.88745	1430.34998	-315.33865	2030.35034	522.60492	-8.55887	2099.38477	514.11310	-126.10452	2127.73315	92.45129	-38.96160	2159.41479	108.39894	-123.48714	1835.89856	546.89447	-347.73923	1881.84680	515.83380	-226.74133	1516.31177	226.96629	-256.44907	1579.66821	198.90544	-195.96037	2166.76074	1378.46423	-305.83527	
112	0.740	1914.80225	1416.01147	-2.61790	2037.83850	1436.42822	-300.36377	1926.36841	1441.91406	-170.25116	2040.92432	1374.45862	-79.42258													1831.93530	1336.19373	46.97260	1820.61511	1255.43567	51.90581	1748.24695	1281.14368	-6.70869	1723.61035	1228.53967	34.94401	1758.99683	1191.44543	-32.91416	1817.90759	1145.82947	75.13640	1876.31750	1075.19995	91.36080	1823.62817	1027.02844	114.60674	2058.36328	1350.84436	-381.54321	2081.93530	1261.81909	-403.56549	1990.18762	1258.35999	-423.77887	2050.93896	1193.23401	-444.42984	1968.88477	1162.64612	-401.52325	2120.64966	1173.90161	-330.19382	2122.96973	1170.43225	-247.95975	2161.68994	1113.12622	-268.73788	2044.43567	919.14929	-59.58564	2034.96851	911.84381	-286.94785	1871.41382	952.13330	-118.40607	1868.79077	958.23492	-200.53969	1973.20227	809.23981	2.77566	1976.36719	642.96375	-37.94452	2047.53308	627.56335	-10.87627							2145.21802	386.65121	-85.31646	2064.67627	338.96948	-27.06453	2132.07861	228.98735	-59.37550							2076.43628	53.58205	-125.08987	2278.91016	80.34409	-100.39259	2242.86865	61.73143	-67.92964	1921.12427	830.04950	-333.54938	1845.77405	695.79651	-293.02151	1874.89893	608.60852	-319.53342							1803.92395	382.44101	-263.27200	1687.55371	430.66360	-294.64264	1642.76550	297.46686	-261.45877							1505.33704	294.64792	-181.98537	1542.18005	116.51477	-254.39629	1513.75159	145.76967	-278.94754																									1741.30359	1209.99255	1.01493	2009.91187	1177.94006	-422.97653	2039.70215	915.49658	-173.26674	1870.10229	955.18408	-159.47287	1934.13171	1294.02722	67.31205	1868.44568	1378.39648	21.74989	2097.05151	1426.97180	-315.68234	2047.45471	520.42352	-9.15928	2116.60742	513.03290	-126.70975	2132.63013	87.75100	-42.72089	2165.64380	103.97697	-126.68172	1863.79529	542.18701	-348.44223	1908.24524	511.97925	-226.67122	1532.75000	235.57149	-253.69331	1594.70105	205.75313	-192.59288	2183.50708	1373.87793	-309.69302	
113	0.747	1932.49658	1412.70496	-0.59243	2054.13770	1433.52661	-299.39584	1943.45081	1439.45044	-168.29822	2058.26343	1372.23132	-78.38259													1850.43970	1330.78796	49.04465	1841.01685	1249.73535	53.67538	1767.98438	1273.72876	-4.44667	1744.20972	1220.74243	36.76644	1781.10913	1183.93787	-30.99424	1840.39258	1139.33289	78.03286	1899.02478	1070.52246	95.71905	1847.41577	1021.33636	117.29417	2071.53564	1348.15723	-380.86554	2093.37329	1259.00952	-404.84048	2001.84741	1256.44189	-421.95047	2061.68530	1190.53345	-444.21725	1980.96326	1160.98608	-399.81219	2133.38477	1169.19824	-331.42560	2137.27002	1164.52637	-249.09860	2174.81177	1107.02930	-271.40320	2061.12061	917.42981	-56.36935	2054.41357	909.62567	-284.06622	1888.94373	948.38751	-117.86124	1887.88379	954.38617	-200.15369	1989.38013	806.58972	4.20485	1992.72278	640.12653	-37.82737	2064.15698	625.44177	-11.57477							2158.15918	381.56793	-85.61488	2075.60400	335.78232	-28.11297	2139.25708	223.69585	-60.72285							2077.37769	51.53284	-128.45151	2243.66455	52.40594	-69.34478	2280.53027	69.91113	-101.18791	1942.95557	826.09174	-332.92474	1869.23511	689.83655	-293.82910	1900.79089	603.44159	-320.02591							1827.70862	380.06436	-263.00510	1713.56970	432.30765	-294.35571	1662.33936	302.77533	-260.43542							1524.69250	305.08737	-179.98254	1555.98291	125.65799	-251.85831	1529.07800	155.90308	-276.48822																									1762.65942	1202.34009	2.88610	2021.32422	1175.75977	-422.01471	2057.76709	913.52771	-170.21779	1888.41382	951.38684	-159.00746	1953.76587	1291.21716	68.88554	1885.86719	1373.93481	23.87506	2113.28442	1422.98828	-315.38907	2064.60303	518.15765	-10.59914	2132.41187	511.85187	-128.99281	2135.98657	82.83363	-45.86102	2169.99048	98.78013	-129.47946	1891.56909	537.18451	-349.21170	1934.30518	507.67343	-226.65883	1551.06897	243.94513	-251.18394	1612.03003	212.30968	-190.00172	2199.27905	1368.87146	-312.99411	
